<svg width="129" height="40" viewBox="0 0 129 40" fill="none" xmlns="http://www.w3.org/2000/svg">
<rect x="0.5" width="128" height="40" rx="10" fill="#090909"/>
<path d="M25.269 20.3006C25.2797 19.466 25.5014 18.6476 25.9135 17.9216C26.3255 17.1957 26.9145 16.5857 27.6256 16.1486C27.1738 15.5034 26.5779 14.9725 25.885 14.5979C25.1922 14.2234 24.4216 14.0155 23.6344 13.9909C21.9552 13.8146 20.3272 14.9957 19.4715 14.9957C18.5992 14.9957 17.2817 14.0084 15.863 14.0376C14.9453 14.0672 14.051 14.3341 13.2671 14.8121C12.4832 15.2902 11.8365 15.9632 11.3901 16.7654C9.45607 20.1139 10.8987 25.0349 12.7513 27.7415C13.6782 29.0669 14.7615 30.5473 16.1789 30.4948C17.566 30.4373 18.084 29.6103 19.7583 29.6103C21.4171 29.6103 21.9031 30.4948 23.3493 30.4614C24.8377 30.4373 25.7754 29.1302 26.6698 27.7923C27.3358 26.8479 27.8483 25.8042 28.1882 24.6998C27.3235 24.3341 26.5856 23.7219 26.0665 22.9396C25.5474 22.1573 25.27 21.2395 25.269 20.3006Z" fill="white"/>
<path d="M22.5376 12.2108C23.3491 11.2366 23.7489 9.98445 23.6521 8.72021C22.4123 8.85044 21.267 9.44299 20.4445 10.3798C20.0424 10.8375 19.7344 11.3699 19.5381 11.9467C19.3419 12.5235 19.2612 13.1333 19.3008 13.7412C19.9209 13.7476 20.5344 13.6132 21.0951 13.3481C21.6558 13.083 22.149 12.6942 22.5376 12.2108Z" fill="white"/>
<path d="M42.8027 27.1397H38.0693L36.9326 30.4962H34.9277L39.4111 18.0782H41.4941L45.9775 30.4962H43.9385L42.8027 27.1397ZM38.5596 25.5909H42.3116L40.462 20.1436H40.4102L38.5596 25.5909Z" fill="white"/>
<path d="M55.6602 25.9698C55.6602 28.7833 54.1543 30.5909 51.8818 30.5909C51.3062 30.621 50.7337 30.4884 50.2299 30.2082C49.7261 29.9281 49.3114 29.5118 49.0332 29.0069H48.9902V33.4913H47.1318V21.4424H48.9307V22.9483H48.9648C49.2558 22.4458 49.6775 22.0316 50.1852 21.7498C50.6928 21.4679 51.2673 21.329 51.8477 21.3477C54.1455 21.3477 55.6602 23.1641 55.6602 25.9698ZM53.75 25.9698C53.75 24.1368 52.8027 22.9317 51.3574 22.9317C49.9375 22.9317 48.9824 24.1622 48.9824 25.9698C48.9824 27.794 49.9375 29.0157 51.3574 29.0157C52.8027 29.0157 53.75 27.8194 53.75 25.9698Z" fill="white"/>
<path d="M65.625 25.9698C65.625 28.7833 64.1191 30.5909 61.8467 30.5909C61.271 30.621 60.6985 30.4884 60.1947 30.2082C59.6909 29.9281 59.2762 29.5118 58.998 29.0069H58.955V33.4913H57.0966V21.4424H58.8955V22.9483H58.9296C59.2206 22.4458 59.6423 22.0316 60.15 21.7498C60.6576 21.468 61.2321 21.329 61.8125 21.3477C64.1103 21.3477 65.625 23.1641 65.625 25.9698ZM63.7148 25.9698C63.7148 24.1368 62.7676 22.9317 61.3223 22.9317C59.9023 22.9317 58.9473 24.1622 58.9473 25.9698C58.9473 27.794 59.9023 29.0157 61.3223 29.0157C62.7676 29.0157 63.7148 27.8194 63.7148 25.9698Z" fill="white"/>
<path d="M72.2109 27.0362C72.3486 28.2676 73.5449 29.0762 75.1797 29.0762C76.7461 29.0762 77.873 28.2676 77.873 27.1572C77.873 26.1934 77.1934 25.6162 75.584 25.2207L73.9746 24.833C71.6943 24.2822 70.6357 23.2158 70.6357 21.4854C70.6357 19.3428 72.5029 17.8711 75.1543 17.8711C77.7783 17.8711 79.5771 19.3428 79.6377 21.4854H77.7617C77.6494 20.2461 76.625 19.4981 75.1279 19.4981C73.6308 19.4981 72.6064 20.2549 72.6064 21.3565C72.6064 22.2344 73.2607 22.751 74.8613 23.1465L76.2295 23.4824C78.7773 24.0849 79.8359 25.1084 79.8359 26.9248C79.8359 29.248 77.9853 30.7031 75.042 30.7031C72.2881 30.7031 70.4287 29.2822 70.3086 27.0361L72.2109 27.0362Z" fill="white"/>
<path d="M83.8467 19.2999V21.4424H85.5684V22.9141H83.8467V27.9053C83.8467 28.6807 84.1914 29.042 84.9482 29.042C85.1526 29.0385 85.3567 29.0241 85.5596 28.999V30.4619C85.2193 30.5255 84.8734 30.5543 84.5273 30.5479C82.6943 30.5479 81.9795 29.8594 81.9795 28.1035V22.9141H80.6631V21.4424H81.9795V19.2999H83.8467Z" fill="white"/>
<path d="M86.5655 25.9698C86.5655 23.1212 88.2432 21.3311 90.8594 21.3311C93.4844 21.3311 95.1543 23.1211 95.1543 25.9698C95.1543 28.8262 93.4932 30.6085 90.8594 30.6085C88.2266 30.6085 86.5655 28.8262 86.5655 25.9698ZM93.2608 25.9698C93.2608 24.0157 92.3653 22.8624 90.8594 22.8624C89.3535 22.8624 88.459 24.0245 88.459 25.9698C88.459 27.9317 89.3535 29.0762 90.8594 29.0762C92.3653 29.0762 93.2608 27.9317 93.2608 25.9698Z" fill="white"/>
<path d="M96.6865 21.4424H98.459V22.9834H98.502C98.6219 22.5021 98.9039 22.0768 99.3004 21.7789C99.697 21.481 100.184 21.3288 100.68 21.3477C100.894 21.3469 101.107 21.3702 101.316 21.417V23.1553C101.046 23.0727 100.764 23.0348 100.481 23.043C100.211 23.0321 99.9423 23.0797 99.6925 23.1825C99.4426 23.2854 99.218 23.4412 99.034 23.6391C98.8501 23.8369 98.7111 24.0723 98.6267 24.329C98.5422 24.5856 98.5143 24.8575 98.5449 25.126V30.4961H96.6865L96.6865 21.4424Z" fill="white"/>
<path d="M109.885 27.837C109.635 29.4805 108.034 30.6084 105.986 30.6084C103.353 30.6084 101.718 28.8438 101.718 26.0127C101.718 23.1729 103.361 21.3311 105.908 21.3311C108.413 21.3311 109.988 23.0518 109.988 25.7969V26.4336H103.594V26.5459C103.564 26.8791 103.606 27.2148 103.716 27.5307C103.826 27.8465 104.002 28.1353 104.233 28.3778C104.463 28.6204 104.742 28.8111 105.052 28.9374C105.362 29.0637 105.695 29.1227 106.029 29.1104C106.468 29.1515 106.909 29.0498 107.286 28.8204C107.663 28.591 107.955 28.246 108.12 27.837L109.885 27.837ZM103.603 25.1348H108.129C108.146 24.8352 108.1 24.5354 107.995 24.2542C107.891 23.973 107.729 23.7165 107.521 23.5007C107.312 23.2849 107.061 23.1146 106.784 23.0004C106.506 22.8861 106.208 22.8305 105.908 22.837C105.606 22.8352 105.306 22.8933 105.026 23.008C104.745 23.1228 104.491 23.2919 104.277 23.5055C104.062 23.7191 103.892 23.9731 103.777 24.2527C103.661 24.5324 103.602 24.8322 103.603 25.1348Z" fill="white"/>
<path d="M36.2515 9.00146V15H38.4399C39.0435 15 39.543 14.8813 39.9385 14.644C40.3369 14.4067 40.6343 14.0625 40.8306 13.6113C41.0269 13.1602 41.125 12.6182 41.125 11.9854C41.125 11.3555 41.0269 10.8179 40.8306 10.3726C40.6372 9.92725 40.3428 9.5874 39.9473 9.35303C39.5518 9.11865 39.0493 9.00146 38.4399 9.00146H36.2515ZM37.438 9.96826H38.2817C38.6538 9.96826 38.9585 10.0444 39.1958 10.1968C39.436 10.3491 39.6133 10.5762 39.7275 10.8779C39.8447 11.1797 39.9033 11.5562 39.9033 12.0073C39.9033 12.3472 39.8696 12.6431 39.8022 12.895C39.7378 13.147 39.6396 13.3579 39.5078 13.5278C39.3789 13.6948 39.2119 13.8208 39.0068 13.9058C38.8018 13.9878 38.5601 14.0288 38.2817 14.0288H37.438V9.96826Z" fill="white"/>
<path d="M44.1683 10.2539C43.7406 10.2539 43.3656 10.3433 43.0433 10.522C42.724 10.7007 42.4749 10.9512 42.2962 11.2734C42.1175 11.5928 42.0282 11.9692 42.0282 12.4028V12.917C42.0282 13.3799 42.1161 13.7725 42.2918 14.0947C42.4705 14.417 42.7196 14.6631 43.0389 14.833C43.3612 15 43.7376 15.0835 44.1683 15.0835C44.5931 15.0835 44.9652 14.9985 45.2845 14.8286C45.6038 14.6587 45.8514 14.4126 46.0272 14.0903C46.2059 13.7681 46.2953 13.377 46.2953 12.917V12.394C46.2953 11.9546 46.2059 11.5752 46.0272 11.2559C45.8514 10.9336 45.6038 10.686 45.2845 10.5132C44.9652 10.3403 44.5931 10.2539 44.1683 10.2539ZM44.1683 11.1504C44.3822 11.1504 44.5594 11.2075 44.7 11.3218C44.8436 11.436 44.9505 11.5898 45.0208 11.7832C45.0912 11.9736 45.1263 12.1875 45.1263 12.4248V12.9082C45.1263 13.1426 45.0926 13.3564 45.0252 13.5498C44.9579 13.7432 44.8538 13.897 44.7132 14.0112C44.5726 14.1255 44.391 14.1826 44.1683 14.1826C43.9456 14.1826 43.7625 14.1255 43.619 14.0112C43.4754 13.894 43.3685 13.7402 43.2982 13.5498C43.2308 13.3564 43.1971 13.1426 43.1971 12.9082V12.4248C43.1971 12.1904 43.2323 11.9766 43.3026 11.7832C43.3758 11.5898 43.4842 11.436 43.6278 11.3218C43.7713 11.2075 43.9515 11.1504 44.1683 11.1504Z" fill="white"/>
<path d="M53.5397 10.3374H52.3884L51.694 13.7783H51.6457L50.758 10.3374H49.6725L48.8024 13.7783H48.7585L48.0773 10.3374H46.8556L48.1081 15H49.3122L50.1955 11.6821H50.2306L51.1315 15H52.3268L53.5397 10.3374Z" fill="white"/>
<path d="M54.3506 15H55.5064V12.416C55.5064 12.1816 55.5445 11.9766 55.6206 11.8008C55.6968 11.6221 55.8081 11.4829 55.9546 11.3833C56.1011 11.2837 56.2783 11.2339 56.4863 11.2339C56.6446 11.2339 56.7866 11.2676 56.9126 11.335C57.0386 11.3994 57.1382 11.502 57.2114 11.6426C57.2876 11.7832 57.3257 11.9692 57.3257 12.2007V15H58.4815V11.8755C58.4815 11.3364 58.3394 10.9336 58.0552 10.667C57.771 10.3975 57.3946 10.2627 56.9258 10.2627C56.6211 10.2627 56.3736 10.3125 56.1831 10.4121C55.9927 10.5117 55.8462 10.6304 55.7437 10.7681C55.6441 10.9058 55.5752 11.0361 55.5371 11.1592H55.48V10.3374H54.3506V15Z" fill="white"/>
<path d="M59.7845 15H60.9447V8.68506H59.7845V15Z" fill="white"/>
<path d="M64.1726 10.2539C63.7448 10.2539 63.3698 10.3433 63.0476 10.522C62.7282 10.7007 62.4792 10.9512 62.3005 11.2734C62.1218 11.5928 62.0324 11.9692 62.0324 12.4028V12.917C62.0324 13.3799 62.1203 13.7725 62.2961 14.0947C62.4748 14.417 62.7238 14.6631 63.0432 14.833C63.3654 15 63.7419 15.0835 64.1726 15.0835C64.5974 15.0835 64.9694 14.9985 65.2888 14.8286C65.6081 14.6587 65.8557 14.4126 66.0314 14.0903C66.2102 13.7681 66.2995 13.377 66.2995 12.917V12.394C66.2995 11.9546 66.2102 11.5752 66.0314 11.2559C65.8557 10.9336 65.6081 10.686 65.2888 10.5132C64.9694 10.3403 64.5974 10.2539 64.1726 10.2539ZM64.1726 11.1504C64.3864 11.1504 64.5637 11.2075 64.7043 11.3218C64.8479 11.436 64.9548 11.5898 65.0251 11.7832C65.0954 11.9736 65.1306 12.1875 65.1306 12.4248V12.9082C65.1306 13.1426 65.0969 13.3564 65.0295 13.5498C64.9621 13.7432 64.8581 13.897 64.7175 14.0112C64.5769 14.1255 64.3952 14.1826 64.1726 14.1826C63.9499 14.1826 63.7668 14.1255 63.6232 14.0112C63.4797 13.894 63.3728 13.7402 63.3024 13.5498C63.2351 13.3564 63.2014 13.1426 63.2014 12.9082V12.4248C63.2014 12.1904 63.2365 11.9766 63.3068 11.7832C63.3801 11.5898 63.4885 11.436 63.632 11.3218C63.7756 11.2075 63.9558 11.1504 64.1726 11.1504Z" fill="white"/>
<path d="M68.6704 15.0703C68.9019 15.0703 69.0996 15.0396 69.2637 14.978C69.4307 14.9136 69.5684 14.8315 69.6768 14.7319C69.7881 14.6294 69.8745 14.521 69.9361 14.4067H69.9888V15H71.083V11.8667C71.083 11.4712 70.9966 11.1562 70.8238 10.9219C70.6538 10.6875 70.4253 10.519 70.1382 10.4165C69.8511 10.314 69.5332 10.2627 69.1846 10.2627C68.8653 10.2627 68.5899 10.2993 68.3584 10.3726C68.127 10.4429 67.9366 10.541 67.7871 10.667C67.6377 10.793 67.5235 10.9395 67.4444 11.1064C67.3682 11.2734 67.3228 11.4521 67.3081 11.6426H68.4024C68.4229 11.5459 68.4624 11.4609 68.521 11.3877C68.5796 11.3115 68.6602 11.2529 68.7627 11.2119C68.8682 11.168 69 11.146 69.1582 11.146C69.3955 11.146 69.5845 11.2031 69.7251 11.3174C69.8658 11.4316 69.9361 11.606 69.9361 11.8403V12.2578H68.7979C68.2559 12.2578 67.8428 12.3853 67.5586 12.6401C67.2774 12.8921 67.1368 13.2275 67.1368 13.6465C67.1368 14.0859 67.2788 14.4331 67.563 14.688C67.8472 14.9429 68.2163 15.0703 68.6704 15.0703ZM69.0484 14.2178C68.8521 14.2178 68.6763 14.165 68.521 14.0596C68.3658 13.9541 68.2881 13.7915 68.2881 13.5718C68.2881 13.3931 68.3496 13.2466 68.4727 13.1323C68.5957 13.0151 68.7862 12.9565 69.044 12.9565H69.9361V13.4399C69.9361 13.5894 69.8951 13.7227 69.813 13.8398C69.7339 13.957 69.627 14.0493 69.4922 14.1167C69.3604 14.1841 69.2124 14.2178 69.0484 14.2178Z" fill="white"/>
<path d="M73.889 10.2759C73.5375 10.2759 73.2299 10.3579 72.9662 10.522C72.7025 10.6831 72.4974 10.916 72.351 11.2207C72.2074 11.5254 72.1356 11.8916 72.1356 12.3193V13.0137C72.1356 13.4385 72.2074 13.8047 72.351 14.1123C72.4945 14.417 72.6967 14.6514 72.9574 14.8154C73.2181 14.9766 73.5243 15.0571 73.8759 15.0571C74.0458 15.0571 74.2054 15.0381 74.3549 15C74.5043 14.959 74.639 14.9033 74.7592 14.833C74.8793 14.7627 74.9804 14.6792 75.0624 14.5825C75.1473 14.4829 75.2074 14.373 75.2426 14.2529H75.2997V15H76.4379V8.68506H75.2777V11.0449H75.225C75.1635 10.8867 75.0697 10.7505 74.9437 10.6362C74.8178 10.519 74.6654 10.4297 74.4867 10.3682C74.308 10.3066 74.1088 10.2759 73.889 10.2759ZM74.2758 11.1987C74.472 11.1987 74.6449 11.2456 74.7943 11.3394C74.9437 11.4331 75.0609 11.5649 75.1459 11.7349C75.2338 11.9019 75.2777 12.1025 75.2777 12.3369V12.939C75.2777 13.1909 75.2367 13.4062 75.1547 13.585C75.0726 13.7637 74.9569 13.9014 74.8075 13.998C74.661 14.0918 74.4896 14.1387 74.2933 14.1387C74.0941 14.1387 73.9213 14.0903 73.7748 13.9937C73.6312 13.897 73.5199 13.7563 73.4408 13.5718C73.3617 13.3843 73.3221 13.1572 73.3221 12.8906V12.438C73.3221 12.1743 73.3602 11.9502 73.4364 11.7656C73.5155 11.5811 73.6268 11.4404 73.7704 11.3438C73.9139 11.2471 74.0824 11.1987 74.2758 11.1987Z" fill="white"/>
<path d="M81.584 10.2539C81.1563 10.2539 80.7813 10.3433 80.459 10.522C80.1397 10.7007 79.8907 10.9512 79.712 11.2734C79.5333 11.5928 79.4439 11.9692 79.4439 12.4028V12.917C79.4439 13.3799 79.5318 13.7725 79.7076 14.0947C79.8863 14.417 80.1353 14.6631 80.4546 14.833C80.7769 15 81.1534 15.0835 81.584 15.0835C82.0088 15.0835 82.3809 14.9985 82.7003 14.8286C83.0196 14.6587 83.2671 14.4126 83.4429 14.0903C83.6216 13.7681 83.711 13.377 83.711 12.917V12.394C83.711 11.9546 83.6216 11.5752 83.4429 11.2559C83.2671 10.9336 83.0196 10.686 82.7003 10.5132C82.3809 10.3403 82.0088 10.2539 81.584 10.2539ZM81.584 11.1504C81.7979 11.1504 81.9752 11.2075 82.1158 11.3218C82.2593 11.436 82.3663 11.5898 82.4366 11.7832C82.5069 11.9736 82.542 12.1875 82.542 12.4248V12.9082C82.542 13.1426 82.5084 13.3564 82.441 13.5498C82.3736 13.7432 82.2696 13.897 82.129 14.0112C81.9883 14.1255 81.8067 14.1826 81.584 14.1826C81.3614 14.1826 81.1783 14.1255 81.0347 14.0112C80.8912 13.894 80.7842 13.7402 80.7139 13.5498C80.6465 13.3564 80.6129 13.1426 80.6129 12.9082V12.4248C80.6129 12.1904 80.648 11.9766 80.7183 11.7832C80.7916 11.5898 80.9 11.436 81.0435 11.3218C81.1871 11.2075 81.3672 11.1504 81.584 11.1504Z" fill="white"/>
<path d="M84.7899 15H85.9457V12.416C85.9457 12.1816 85.9838 11.9766 86.06 11.8008C86.1361 11.6221 86.2475 11.4829 86.3939 11.3833C86.5404 11.2837 86.7177 11.2339 86.9257 11.2339C87.0839 11.2339 87.226 11.2676 87.352 11.335C87.4779 11.3994 87.5775 11.502 87.6508 11.6426C87.727 11.7832 87.765 11.9692 87.765 12.2007V15H88.9208V11.8755C88.9208 11.3364 88.7787 10.9336 88.4945 10.667C88.2104 10.3975 87.8339 10.2627 87.3651 10.2627C87.0604 10.2627 86.8129 10.3125 86.6225 10.4121C86.432 10.5117 86.2855 10.6304 86.183 10.7681C86.0834 10.9058 86.0145 11.0361 85.9765 11.1592H85.9193V10.3374H84.7899V15Z" fill="white"/>
<path d="M92.4586 10.3813H91.7247V11.269H92.4322V13.6816C92.4322 13.998 92.4805 14.2559 92.5772 14.4551C92.6739 14.6514 92.835 14.7964 93.0606 14.8901C93.2862 14.981 93.5924 15.0264 93.9791 15.0264C94.1109 15.0264 94.2457 15.0205 94.3834 15.0088C94.524 14.9971 94.6163 14.9868 94.6602 14.978V14.1211C94.6192 14.124 94.5606 14.1284 94.4845 14.1343C94.4083 14.1372 94.3336 14.1387 94.2603 14.1387C94.0172 14.1387 93.8428 14.0962 93.7374 14.0112C93.6348 13.9233 93.5836 13.7637 93.5836 13.5322V11.269H94.6163V10.3813H93.5836V9.22119H92.4586V10.3813Z" fill="white"/>
<path d="M95.6821 15H96.8334V12.416C96.8334 12.1816 96.873 11.9766 96.9521 11.8008C97.0312 11.6221 97.144 11.4829 97.2905 11.3833C97.4399 11.2837 97.6156 11.2339 97.8178 11.2339C97.9789 11.2339 98.1239 11.2676 98.2529 11.335C98.3818 11.3994 98.4843 11.5034 98.5605 11.647C98.6366 11.7876 98.6747 11.9736 98.6747 12.2051V15H99.8305V11.8843C99.8305 11.3423 99.6855 10.9365 99.3954 10.667C99.1083 10.3975 98.7377 10.2627 98.2836 10.2627C97.9819 10.2627 97.7343 10.314 97.5409 10.4165C97.3476 10.519 97.1996 10.6406 97.0971 10.7812C96.9946 10.9219 96.9272 11.0479 96.8949 11.1592H96.8334V8.68506H95.6821V15Z" fill="white"/>
<path d="M103.006 15.0835C103.34 15.0835 103.627 15.0381 103.867 14.9473C104.107 14.8564 104.305 14.7393 104.46 14.5957C104.618 14.4521 104.739 14.2998 104.821 14.1387C104.903 13.9746 104.949 13.8193 104.961 13.6729H103.863C103.848 13.7695 103.801 13.8574 103.722 13.9365C103.646 14.0156 103.546 14.0786 103.423 14.1255C103.3 14.1694 103.159 14.1914 103.001 14.1914C102.699 14.1914 102.459 14.0933 102.281 13.897C102.102 13.7007 102.012 13.4502 102.012 13.1455V12.9258H105.005V12.3896C105.005 11.9502 104.917 11.5708 104.741 11.2515C104.566 10.9321 104.324 10.686 104.016 10.5132C103.709 10.3403 103.353 10.2539 102.948 10.2539C102.562 10.2539 102.212 10.3359 101.898 10.5C101.585 10.6641 101.336 10.9058 101.151 11.2251C100.969 11.5415 100.879 11.9297 100.879 12.3896V12.9434C100.879 13.4004 100.965 13.7886 101.138 14.1079C101.314 14.4272 101.561 14.6704 101.881 14.8374C102.2 15.0015 102.575 15.0835 103.006 15.0835ZM102.012 12.2227C102.012 12.2139 102.012 12.2065 102.012 12.2007C102.012 12.1919 102.012 12.1831 102.012 12.1743C102.012 11.9634 102.052 11.7803 102.131 11.625C102.21 11.4668 102.32 11.3438 102.461 11.2559C102.601 11.168 102.765 11.124 102.953 11.124C103.14 11.124 103.303 11.168 103.441 11.2559C103.581 11.3438 103.69 11.4668 103.766 11.625C103.845 11.7803 103.885 11.9634 103.885 12.1743C103.885 12.1831 103.885 12.1919 103.885 12.2007C103.885 12.2065 103.885 12.2139 103.885 12.2227H102.012Z" fill="white"/>
</svg>
