<svg width="129" height="40" viewBox="0 0 129 40" fill="none" xmlns="http://www.w3.org/2000/svg">
<rect x="0.5" width="128" height="40" rx="10" fill="#090909"/>
<path d="M40.9272 10.7988C40.9009 10.5352 40.8306 10.2891 40.7163 10.0605C40.6021 9.8291 40.4453 9.62549 40.2461 9.44971C40.0469 9.27393 39.8066 9.13623 39.5254 9.03662C39.2471 8.93701 38.9292 8.88721 38.5718 8.88721C38.0298 8.88721 37.5669 9.00146 37.1831 9.22998C36.8022 9.45557 36.5107 9.77197 36.3086 10.1792C36.1094 10.5864 36.0098 11.061 36.0098 11.603V12.3633C36.0098 12.7705 36.0625 13.1426 36.168 13.4795C36.2734 13.8164 36.4331 14.1064 36.647 14.3496C36.8608 14.5928 37.1274 14.7817 37.4468 14.9165C37.769 15.0483 38.1455 15.1143 38.5762 15.1143C38.9775 15.1143 39.3262 15.0586 39.6221 14.9473C39.9209 14.833 40.1685 14.6763 40.3647 14.4771C40.561 14.2778 40.7075 14.0493 40.8042 13.7915C40.9009 13.5308 40.9492 13.2554 40.9492 12.9653V11.77H38.585V12.6533H39.8198V13.0356C39.8198 13.2349 39.7744 13.4165 39.6836 13.5806C39.5928 13.7446 39.4565 13.8765 39.2749 13.9761C39.0933 14.0728 38.8647 14.1211 38.5894 14.1211C38.2759 14.1211 38.0166 14.0479 37.8115 13.9014C37.6064 13.752 37.4541 13.5454 37.3545 13.2817C37.2578 13.0181 37.2095 12.7104 37.2095 12.3589V11.6118C37.2095 11.064 37.3267 10.6392 37.561 10.3374C37.7983 10.0356 38.1309 9.88477 38.5586 9.88477C38.7227 9.88477 38.8721 9.90674 39.0068 9.95068C39.1445 9.99463 39.2632 10.0576 39.3628 10.1396C39.4653 10.2188 39.5503 10.314 39.6177 10.4253C39.6851 10.5366 39.7334 10.6611 39.7627 10.7988H40.9272Z" fill="white"/>
<path d="M44.0672 15.0835C44.4012 15.0835 44.6883 15.0381 44.9286 14.9473C45.1688 14.8564 45.3665 14.7393 45.5218 14.5957C45.68 14.4521 45.8001 14.2998 45.8822 14.1387C45.9642 13.9746 46.0111 13.8193 46.0228 13.6729H44.9242C44.9095 13.7695 44.8626 13.8574 44.7835 13.9365C44.7074 14.0156 44.6078 14.0786 44.4847 14.1255C44.3617 14.1694 44.221 14.1914 44.0628 14.1914C43.7611 14.1914 43.5208 14.0933 43.3421 13.897C43.1634 13.7007 43.0741 13.4502 43.0741 13.1455V12.9258H46.0667V12.3896C46.0667 11.9502 45.9788 11.5708 45.8031 11.2515C45.6273 10.9321 45.3856 10.686 45.078 10.5132C44.7704 10.3403 44.4144 10.2539 44.0101 10.2539C43.6234 10.2539 43.2733 10.3359 42.9598 10.5C42.6463 10.6641 42.3973 10.9058 42.2127 11.2251C42.0311 11.5415 41.9403 11.9297 41.9403 12.3896V12.9434C41.9403 13.4004 42.0267 13.7886 42.1996 14.1079C42.3753 14.4272 42.6229 14.6704 42.9422 14.8374C43.2616 15.0015 43.6366 15.0835 44.0672 15.0835ZM43.0741 12.2227C43.0741 12.2139 43.0741 12.2065 43.0741 12.2007C43.0741 12.1919 43.0741 12.1831 43.0741 12.1743C43.0741 11.9634 43.1136 11.7803 43.1927 11.625C43.2718 11.4668 43.3817 11.3438 43.5223 11.2559C43.6629 11.168 43.827 11.124 44.0145 11.124C44.202 11.124 44.3646 11.168 44.5023 11.2559C44.6429 11.3438 44.7513 11.4668 44.8275 11.625C44.9066 11.7803 44.9461 11.9634 44.9461 12.1743C44.9461 12.1831 44.9461 12.1919 44.9461 12.2007C44.9461 12.2065 44.9461 12.2139 44.9461 12.2227H43.0741Z" fill="white"/>
<path d="M47.4797 10.3813H46.7458V11.269H47.4533V13.6816C47.4533 13.998 47.5016 14.2559 47.5983 14.4551C47.695 14.6514 47.8561 14.7964 48.0817 14.8901C48.3073 14.981 48.6135 15.0264 49.0002 15.0264C49.132 15.0264 49.2668 15.0205 49.4045 15.0088C49.5451 14.9971 49.6374 14.9868 49.6813 14.978V14.1211C49.6403 14.124 49.5817 14.1284 49.5055 14.1343C49.4294 14.1372 49.3547 14.1387 49.2814 14.1387C49.0383 14.1387 48.8639 14.0962 48.7585 14.0112C48.6559 13.9233 48.6047 13.7637 48.6047 13.5322V11.269H49.6374V10.3813H48.6047V9.22119H47.4797V10.3813Z" fill="white"/>
<path d="M52.683 15H53.8387V10.3374H52.683V15ZM52.5336 8.96191C52.5336 9.14941 52.6009 9.30322 52.7357 9.42334C52.8705 9.54053 53.0448 9.59912 53.2587 9.59912C53.4754 9.59912 53.6512 9.54053 53.786 9.42334C53.9208 9.30322 53.9881 9.14941 53.9881 8.96191C53.9881 8.76855 53.9208 8.61328 53.786 8.49609C53.6512 8.37598 53.4754 8.31592 53.2587 8.31592C53.0448 8.31592 52.8705 8.37598 52.7357 8.49609C52.6009 8.61328 52.5336 8.76855 52.5336 8.96191Z" fill="white"/>
<path d="M55.5329 10.3813H54.799V11.269H55.5065V13.6816C55.5065 13.998 55.5549 14.2559 55.6516 14.4551C55.7482 14.6514 55.9094 14.7964 56.135 14.8901C56.3605 14.981 56.6667 15.0264 57.0534 15.0264C57.1853 15.0264 57.32 15.0205 57.4577 15.0088C57.5983 14.9971 57.6906 14.9868 57.7346 14.978V14.1211C57.6936 14.124 57.635 14.1284 57.5588 14.1343C57.4826 14.1372 57.4079 14.1387 57.3347 14.1387C57.0915 14.1387 56.9172 14.0962 56.8117 14.0112C56.7092 13.9233 56.6579 13.7637 56.6579 13.5322V11.269H57.6906V10.3813H56.6579V9.22119H55.5329V10.3813Z" fill="white"/>
<path d="M62.5775 10.2539C62.1498 10.2539 61.7748 10.3433 61.4525 10.522C61.1332 10.7007 60.8842 10.9512 60.7055 11.2734C60.5267 11.5928 60.4374 11.9692 60.4374 12.4028V12.917C60.4374 13.3799 60.5253 13.7725 60.7011 14.0947C60.8798 14.417 61.1288 14.6631 61.4481 14.833C61.7704 15 62.1469 15.0835 62.5775 15.0835C63.0023 15.0835 63.3744 14.9985 63.6937 14.8286C64.0131 14.6587 64.2606 14.4126 64.4364 14.0903C64.6151 13.7681 64.7045 13.377 64.7045 12.917V12.394C64.7045 11.9546 64.6151 11.5752 64.4364 11.2559C64.2606 10.9336 64.0131 10.686 63.6937 10.5132C63.3744 10.3403 63.0023 10.2539 62.5775 10.2539ZM62.5775 11.1504C62.7914 11.1504 62.9686 11.2075 63.1093 11.3218C63.2528 11.436 63.3597 11.5898 63.4301 11.7832C63.5004 11.9736 63.5355 12.1875 63.5355 12.4248V12.9082C63.5355 13.1426 63.5018 13.3564 63.4345 13.5498C63.3671 13.7432 63.2631 13.897 63.1224 14.0112C62.9818 14.1255 62.8002 14.1826 62.5775 14.1826C62.3549 14.1826 62.1718 14.1255 62.0282 14.0112C61.8846 13.894 61.7777 13.7402 61.7074 13.5498C61.64 13.3564 61.6063 13.1426 61.6063 12.9082V12.4248C61.6063 12.1904 61.6415 11.9766 61.7118 11.7832C61.785 11.5898 61.8934 11.436 62.037 11.3218C62.1805 11.2075 62.3607 11.1504 62.5775 11.1504Z" fill="white"/>
<path d="M65.7834 15H66.9392V12.416C66.9392 12.1816 66.9773 11.9766 67.0534 11.8008C67.1296 11.6221 67.2409 11.4829 67.3874 11.3833C67.5339 11.2837 67.7112 11.2339 67.9192 11.2339C68.0774 11.2339 68.2195 11.2676 68.3454 11.335C68.4714 11.3994 68.571 11.502 68.6443 11.6426C68.7204 11.7832 68.7585 11.9692 68.7585 12.2007V15H69.9143V11.8755C69.9143 11.3364 69.7722 10.9336 69.488 10.667C69.2038 10.3975 68.8274 10.2627 68.3586 10.2627C68.0539 10.2627 67.8064 10.3125 67.6159 10.4121C67.4255 10.5117 67.279 10.6304 67.1765 10.7681C67.0769 10.9058 67.008 11.0361 66.9699 11.1592H66.9128V10.3374H65.7834V15Z" fill="white"/>
<path d="M61.7671 22.705C60.9245 22.707 60.1015 22.9588 59.402 23.4285C58.7026 23.8982 58.1581 24.5648 57.8375 25.344C57.5169 26.1232 57.4346 26.9799 57.6009 27.8059C57.7672 28.6319 58.1747 29.39 58.7719 29.9843C59.369 30.5787 60.129 30.9826 60.9558 31.1451C61.7825 31.3075 62.6389 31.2211 63.4165 30.8969C64.1942 30.5726 64.8582 30.0251 65.3247 29.3234C65.7911 28.6218 66.039 27.7975 66.0371 26.955C66.0452 26.3929 65.9402 25.835 65.7282 25.3143C65.5163 24.7937 65.2017 24.3211 64.8033 23.9245C64.4049 23.528 63.9308 23.2156 63.4091 23.0061C62.8875 22.7966 62.3291 22.6942 61.7671 22.705ZM61.7671 29.535C61.2506 29.5711 60.7353 29.451 60.288 29.1904C59.8407 28.9297 59.4822 28.5406 59.2591 28.0734C59.0359 27.6063 58.9584 27.0829 59.0367 26.5712C59.115 26.0594 59.3454 25.5831 59.698 25.204C60.0506 24.825 60.5091 24.5608 61.0138 24.4458C61.5186 24.3308 62.0462 24.3702 62.5282 24.5591C63.0102 24.7479 63.4243 25.0774 63.7166 25.5047C64.0088 25.932 64.1658 26.4373 64.1671 26.955C64.1832 27.283 64.1334 27.6109 64.0208 27.9194C63.9081 28.2279 63.7349 28.5107 63.5112 28.7512C63.2875 28.9916 63.018 29.1849 62.7184 29.3195C62.4188 29.4541 62.0954 29.5274 61.7671 29.535ZM52.4471 22.705C51.6045 22.707 50.7815 22.9588 50.082 23.4285C49.3826 23.8982 48.8381 24.5648 48.5175 25.344C48.1969 26.1232 48.1146 26.9799 48.2809 27.8059C48.4472 28.6319 48.8547 29.39 49.4519 29.9843C50.049 30.5787 50.809 30.9826 51.6358 31.1451C52.4625 31.3075 53.3189 31.2211 54.0965 30.8969C54.8742 30.5726 55.5382 30.0251 56.0047 29.3234C56.4711 28.6218 56.719 27.7975 56.717 26.955C56.7252 26.3929 56.6202 25.835 56.4082 25.3143C56.1963 24.7937 55.8817 24.3211 55.4833 23.9245C55.0849 23.528 54.6108 23.2156 54.0891 23.0061C53.5675 22.7966 53.0091 22.6942 52.4471 22.705ZM52.4471 29.535C51.9306 29.5711 51.4153 29.451 50.968 29.1904C50.5207 28.9297 50.1622 28.5406 49.9391 28.0734C49.7159 27.6063 49.6384 27.0829 49.7167 26.5712C49.795 26.0594 50.0254 25.5831 50.378 25.204C50.7306 24.825 51.1891 24.5608 51.6938 24.4458C52.1986 24.3308 52.7262 24.3702 53.2082 24.5591C53.6902 24.7479 54.1043 25.0774 54.3966 25.5047C54.6888 25.932 54.8458 26.4373 54.8471 26.955C54.8632 27.283 54.8134 27.6109 54.7008 27.9194C54.5881 28.2279 54.4149 28.5107 54.1912 28.7512C53.9675 28.9916 53.698 29.1849 53.3984 29.3195C53.0988 29.4541 52.7754 29.5274 52.4471 29.535ZM41.3671 24.015V25.815H45.6871C45.6193 26.6628 45.2669 27.4628 44.6871 28.085C44.2537 28.5265 43.7325 28.8721 43.1572 29.0995C42.5818 29.3269 41.9652 29.431 41.3471 29.405C40.074 29.405 38.8531 28.8993 37.9529 27.9991C37.0528 27.0989 36.5471 25.878 36.5471 24.605C36.5471 23.332 37.0528 22.1111 37.9529 21.2109C38.8531 20.3107 40.074 19.805 41.3471 19.805C42.5675 19.7869 43.7459 20.2503 44.6271 21.095L45.8971 19.825C45.301 19.2355 44.5934 18.7709 43.8155 18.4584C43.0376 18.1459 42.2052 17.9917 41.3671 18.005C40.4781 17.9704 39.5912 18.1156 38.7597 18.432C37.9281 18.7483 37.169 19.2293 36.5278 19.846C35.8866 20.4628 35.3765 21.2026 35.028 22.0212C34.6796 22.8398 34.5 23.7203 34.5 24.61C34.5 25.4997 34.6796 26.3802 35.028 27.1988C35.3765 28.0174 35.8866 28.7572 36.5278 29.374C37.169 29.9907 37.9281 30.4717 38.7597 30.788C39.5912 31.1044 40.4781 31.2496 41.3671 31.215C42.2225 31.2492 43.0754 31.102 43.87 30.7832C44.6645 30.4643 45.3826 29.981 45.9771 29.365C47.0272 28.2114 47.5867 26.6942 47.5371 25.135C47.5406 24.7597 47.5105 24.3849 47.4471 24.015H41.3671ZM86.6771 25.415C86.4163 24.6477 85.9286 23.9778 85.2786 23.4938C84.6285 23.0099 83.8469 22.7348 83.0371 22.705C82.4901 22.7039 81.9486 22.8151 81.4463 23.0315C80.9439 23.248 80.4913 23.5652 80.1164 23.9635C79.7415 24.3619 79.4523 24.8328 79.2667 25.3474C79.081 25.8619 79.0029 26.4091 79.0371 26.955C79.0285 27.8679 79.3155 28.759 79.8552 29.4953C80.3948 30.2316 81.1582 30.7735 82.0313 31.0401C82.9044 31.3068 83.8403 31.2838 84.6993 30.9747C85.5582 30.6656 86.2941 30.0869 86.7971 29.325L85.3471 28.325C85.1309 28.6853 84.8243 28.9828 84.4577 29.188C84.0911 29.3933 83.6772 29.4991 83.257 29.495C82.8236 29.5129 82.3949 29.3993 82.0273 29.169C81.6596 28.9388 81.3702 28.6027 81.1971 28.205L86.8871 25.855L86.6771 25.415ZM80.8771 26.835C80.8568 26.5244 80.8987 26.2128 81.0003 25.9186C81.102 25.6244 81.2613 25.3534 81.469 25.1215C81.6766 24.8896 81.9285 24.7015 82.2097 24.5682C82.491 24.4348 82.7961 24.359 83.1071 24.345C83.4293 24.3253 83.7501 24.4012 84.0294 24.5631C84.3087 24.7249 84.534 24.9656 84.6771 25.255L80.8771 26.835ZM76.257 30.955H78.1271V18.455H76.257V30.955ZM73.1971 23.655H73.1271C72.8477 23.3369 72.5029 23.0828 72.1163 22.9102C71.7297 22.7376 71.3104 22.6506 70.8871 22.655C69.7942 22.708 68.7637 23.1794 68.009 23.9716C67.2543 24.7637 66.8334 25.8159 66.8334 26.91C66.8334 28.0041 67.2543 29.0563 68.009 29.8484C68.7637 30.6406 69.7942 31.112 70.8871 31.165C71.311 31.1735 71.7316 31.0883 72.1188 30.9154C72.5061 30.7426 72.8503 30.4863 73.1271 30.165H73.1971V30.775C73.1971 32.405 72.3271 33.275 70.9271 33.275C70.4594 33.2647 70.0053 33.1157 69.6225 32.8468C69.2397 32.578 68.9454 32.2014 68.7771 31.765L67.1571 32.435C67.4566 33.1872 67.9773 33.8309 68.6505 34.2808C69.3236 34.7308 70.1174 34.9659 70.9271 34.955C73.1171 34.955 74.9271 33.665 74.9271 30.525V22.955H73.1971V23.655ZM71.0471 29.535C70.3919 29.4942 69.7769 29.2051 69.3274 28.7267C68.8778 28.2482 68.6276 27.6165 68.6276 26.96C68.6276 26.3035 68.8778 25.6718 69.3274 25.1933C69.7769 24.7149 70.3919 24.4259 71.0471 24.385C71.3673 24.3988 71.6815 24.4769 71.9709 24.6146C72.2604 24.7524 72.5191 24.9469 72.7318 25.1867C72.9446 25.4265 73.1069 25.7066 73.2091 26.0104C73.3114 26.3141 73.3515 26.6354 73.327 26.955C73.3543 27.2757 73.3163 27.5986 73.2152 27.9042C73.1141 28.2097 72.9521 28.4916 72.739 28.7328C72.5259 28.974 72.2661 29.1694 71.9752 29.3073C71.6844 29.4452 71.3687 29.5226 71.0471 29.535ZM95.437 18.455H90.9571V30.955H92.827V26.215H95.437C95.97 26.2533 96.5051 26.1814 97.0091 26.0037C97.513 25.8261 97.9749 25.5465 98.3661 25.1825C98.7572 24.8185 99.0691 24.3777 99.2824 23.8878C99.4957 23.3979 99.6058 22.8693 99.6058 22.335C99.6058 21.8007 99.4957 21.2721 99.2824 20.7822C99.0691 20.2923 98.7572 19.8515 98.3661 19.4875C97.9749 19.1235 97.513 18.8439 97.0091 18.6663C96.5051 18.4886 95.97 18.4167 95.437 18.455ZM95.437 24.455H92.827V20.195H95.4771C95.7581 20.195 96.0364 20.2504 96.296 20.3579C96.5556 20.4654 96.7915 20.6231 96.9903 20.8218C97.189 21.0205 97.3466 21.2564 97.4542 21.5161C97.5617 21.7757 97.6171 22.054 97.6171 22.335C97.6171 22.616 97.5617 22.8943 97.4542 23.1539C97.3466 23.4136 97.189 23.6495 96.9903 23.8482C96.7915 24.0469 96.5556 24.2046 96.296 24.3121C96.0364 24.4196 95.7581 24.475 95.4771 24.475L95.437 24.455ZM106.977 22.665C106.296 22.623 105.618 22.7816 105.026 23.121C104.434 23.4605 103.955 23.966 103.647 24.575L105.297 25.265C105.464 24.9644 105.714 24.7185 106.017 24.557C106.321 24.3955 106.665 24.3254 107.007 24.355C107.244 24.3273 107.485 24.3471 107.715 24.4133C107.944 24.4795 108.158 24.5908 108.345 24.7407C108.531 24.8906 108.685 25.076 108.799 25.2862C108.913 25.4964 108.983 25.7272 109.007 25.965V26.085C108.406 25.7689 107.736 25.6042 107.057 25.605C105.277 25.605 103.457 26.605 103.457 28.425C103.475 28.8118 103.57 29.1912 103.737 29.5405C103.904 29.8899 104.14 30.2021 104.43 30.4586C104.72 30.7151 105.058 30.9107 105.426 31.0338C105.793 31.1569 106.181 31.2049 106.567 31.175C107.036 31.201 107.504 31.1017 107.922 30.8873C108.34 30.6729 108.694 30.3511 108.947 29.955H109.007V30.955H110.807V26.145C110.807 23.955 109.147 22.685 107.017 22.685L106.977 22.665ZM106.747 29.515C106.137 29.515 105.287 29.205 105.287 28.455C105.287 27.455 106.347 27.115 107.287 27.115C107.881 27.1003 108.468 27.2454 108.987 27.535C108.924 28.0781 108.667 28.58 108.262 28.9477C107.858 29.3155 107.334 29.5241 106.787 29.535L106.747 29.515ZM117.367 22.955L115.227 28.375H115.167L112.947 22.955H110.947L114.277 30.535L112.377 34.745H114.327L119.447 22.955H117.367ZM100.567 30.955H102.427V18.455H100.567V30.955Z" fill="white"/>
<path d="M9.01545 9.53767L19.5144 20.0156L9.06586 30.5854C8.76094 30.3918 8.59749 29.9724 8.59472 29.4308C8.58948 28.3918 8.50629 11.9079 8.50003 10.6709C8.49712 10.0777 8.71302 9.71589 9.01545 9.53767ZM22.9765 16.5134L10.2097 9.55179C10.0734 9.47739 9.91853 9.4321 9.76425 9.41187L19.9487 19.5762L22.9765 16.5134ZM23.5443 23.1645L20.386 20.0125L23.541 16.8213L27.8858 19.1902C28.9562 19.7735 28.4087 20.5032 27.8858 20.7892L23.5443 23.1645ZM9.93135 30.5883C10.0204 30.5548 10.1133 30.5126 10.2097 30.4587L22.9792 23.4734L19.9517 20.452L9.93135 30.5883Z" fill="white"/>
</svg>
